<svg xmlns="http://www.w3.org/2000/svg"  viewBox="0 0 128 128" width="128px" height="128px"><path fill="#C7D7E2" d="M109.4,96.6H18.6c-2.3,0-4.1-1.8-4.1-4.1V19.1c0-2.3,1.8-4.1,4.1-4.1h90.8c2.3,0,4.1,1.8,4.1,4.1v73.4C113.5,94.8,111.7,96.6,109.4,96.6z"/><path fill="#FFF" d="M64 85.1A3.2 3.2 0 1 0 64 91.5 3.2 3.2 0 1 0 64 85.1zM14.5 80.2V19.1c0-2.3 1.8-4.1 4.1-4.1h90.8c2.3 0 4.1 1.8 4.1 4.1v61.1H14.5z"/><path fill="#F1C0C3" d="M88.3,29.5c-3.2,0-5.8,2.6-5.8,5.8c0,1.6,0.6,3.1,1.7,4.1L75,53.3c-0.7-0.3-1.4-0.4-2.2-0.4c-1.2,0-2.3,0.4-3.2,1l-7.5-7.5c0.6-0.9,1-2,1-3.2c0-3.2-2.6-5.8-5.8-5.8c-3.2,0-5.8,2.6-5.8,5.8c0,1.2,0.4,2.3,1,3.2l-7.5,7.5c-0.9-0.6-2-1-3.2-1c-3.2,0-5.8,2.6-5.8,5.8c0,3.2,2.6,5.8,5.8,5.8c3.2,0,5.8-2.6,5.8-5.8c0-1.2-0.4-2.3-1-3.2L54,48c0.9,0.6,2,1,3.2,1s2.3-0.4,3.2-1l7.5,7.5c-0.6,0.9-1,2-1,3.2c0,3.2,2.6,5.8,5.8,5.8s5.8-2.6,5.8-5.8c0-1.6-0.6-3.1-1.7-4.1l9.2-13.8c0.7,0.3,1.4,0.4,2.2,0.4c3.2,0,5.8-2.6,5.8-5.8C94.2,32.1,91.6,29.5,88.3,29.5z"/><path fill="#C7D7E2" d="M78.4 113L49.6 113 53.8 96.7 74.2 96.7z"/><path fill="#454B54" d="M78.4,116H49.6c-0.9,0-1.8-0.4-2.4-1.2c-0.6-0.7-0.8-1.7-0.5-2.6l2.1-8.3c0.4-1.6,2-2.6,3.6-2.2c1.6,0.4,2.6,2,2.2,3.6l-1.2,4.6h21l-1.2-4.6c-0.4-1.6,0.6-3.2,2.2-3.6c1.6-0.4,3.2,0.6,3.6,2.2l2.1,8.3c0.2,0.9,0,1.9-0.5,2.6C80.2,115.5,79.3,116,78.4,116z"/><path fill="#454B54" d="M89 116H39c-1.7 0-3-1.3-3-3s1.3-3 3-3h50c1.7 0 3 1.3 3 3S90.7 116 89 116zM113.5 83.2h-99c-1.7 0-3-1.3-3-3s1.3-3 3-3h99c1.7 0 3 1.3 3 3S115.2 83.2 113.5 83.2z"/><path fill="#454B54" d="M109.4,99.6H18.6c-3.9,0-7.1-3.2-7.1-7.1V19.1c0-3.9,3.2-7.1,7.1-7.1h90.8c3.9,0,7.1,3.2,7.1,7.1v73.4C116.5,96.5,113.3,99.6,109.4,99.6z M18.6,18c-0.6,0-1.1,0.5-1.1,1.1v73.4c0,0.6,0.5,1.1,1.1,1.1h90.8c0.6,0,1.1-0.5,1.1-1.1V19.1c0-0.6-0.5-1.1-1.1-1.1H18.6z"/></svg>