<svg xmlns="http://www.w3.org/2000/svg"  viewBox="0 0 48 48" width="256px" height="256px"><path fill="#FFFFFF" d="M32 15A9 9 0 1 0 32 33A9 9 0 1 0 32 15Z"/><path fill="#71C2FF" d="M32,12c-6.6,0-12,5.4-12,12s5.4,12,12,12s12-5.4,12-12S38.6,12,32,12z M32,32c-4.4,0-8-3.6-8-8s3.6-8,8-8s8,3.6,8,8S36.4,32,32,32z"/><path fill="#444B54" d="M25.4 22L19.8 5.1 13.6 27.7 11.4 22 4 22 4 26 8.6 26 14.4 40.3 20.2 18.9 22.6 26 30 26 30 22z"/><path fill="#444B54" d="M32 20A4 4 0 1 0 32 28A4 4 0 1 0 32 20Z"/></svg>