<svg fill="#444B54" xmlns="http://www.w3.org/2000/svg"  viewBox="0 0 24 24" width="128px" height="128px"><path d="M 10.361328 2 C 10.155328 2 9.9848437 2.1553281 9.9648438 2.3613281 L 9.7558594 4.4375 C 9.2318594 4.6495 8.7465938 4.9333438 8.3085938 5.2773438 L 6.4023438 4.4179688 C 6.2143438 4.3319688 5.994625 4.4030781 5.890625 4.5800781 L 4.2519531 7.4199219 C 4.1499531 7.5969219 4.1982344 7.8243594 4.3652344 7.9433594 L 6.0644531 9.1640625 C 6.0274531 9.4390625 6 9.716 6 10 C 6 10.284 6.0264531 10.560938 6.0644531 10.835938 L 4.3671875 12.056641 C 4.2001875 12.177641 4.1519062 12.403078 4.2539062 12.580078 L 5.8925781 15.417969 C 5.9945781 15.595969 6.2153437 15.666031 6.4023438 15.582031 L 8.3085938 14.722656 C 8.7465938 15.065656 9.2328125 15.3515 9.7578125 15.5625 L 9.9648438 17.640625 C 9.9838438 17.844625 10.155328 18 10.361328 18 L 13.638672 18 C 13.844672 18 14.015156 17.843672 14.035156 17.638672 L 14.244141 15.560547 C 14.768141 15.348547 15.254359 15.065656 15.693359 14.722656 L 17.599609 15.582031 C 17.786609 15.667031 18.007375 15.596969 18.109375 15.417969 L 19.748047 12.580078 C 19.850047 12.402078 19.801766 12.175641 19.634766 12.056641 L 17.935547 10.835938 C 17.973547 10.561937 18 10.284 18 10 C 18 9.716 17.974547 9.4390625 17.935547 9.1640625 L 19.634766 7.9433594 C 19.800766 7.8243594 19.850047 7.5969219 19.748047 7.4199219 L 18.109375 4.5820312 C 18.007375 4.4040313 17.786609 4.3339687 17.599609 4.4179688 L 15.693359 5.2773438 C 15.255359 4.9343438 14.769141 4.6485 14.244141 4.4375 L 14.035156 2.359375 C 14.015156 2.154375 13.844672 2 13.638672 2 L 10.361328 2 z M 12 7 C 13.657 7 15 8.343 15 10 C 15 11.657 13.657 13 12 13 C 10.343 13 9 11.657 9 10 C 9 8.343 10.343 7 12 7 z M 2 17 L 2 20 C 2 21.093063 2.9069372 22 4 22 L 20 22 C 21.093063 22 22 21.093063 22 20 L 22 17 L 20 17 L 20 20 L 4 20 L 4 17 L 2 17 z"/></svg>