<svg xmlns="http://www.w3.org/2000/svg"  viewBox="0 0 128 128" width="256px" height="256px"><circle cx="29" cy="20" r="10" fill="#fff"/><path fill="#fff" d="M107,40H81.2c-1.5-3.5-5.1-6-9.2-6H54.8c-4.1,0-7.6,2.4-9.2,6H21c-5.5,0-11,4.5-11,10L7.4,64.6 c-1.2,6.8,2.9,13.4,9.5,15.2l0.1,0V121c0,3.3,2.7,6,6,6c2.8,0,78.8,0.1,82.2,0c3.3-0.1,5.8-3,5.8-6.2V80c3.3,0,6-2.7,6-6V50 C117,44.5,112.5,40,107,40z"/><circle cx="99" cy="20" r="10" fill="#fff"/><path fill="#444b54" d="M17,127c-1.7,0-3-1.3-3-3V79.7c0-1.7,1.3-3,3-3s3,1.3,3,3V124C20,125.7,18.7,127,17,127z"/><path fill="#444b54" d="M6,75c-0.2,0-0.3,0-0.5,0c-1.6-0.3-2.8-1.8-2.5-3.4L6.7,48c1-6.4,6.4-11,12.8-11H37c1.7,0,3,1.3,3,3 s-1.3,3-3,3H19.6c-3.5,0-6.4,2.5-6.9,5.9L9,72.5C8.7,73.9,7.5,75,6,75z"/><path fill="#444b54" d="M29,33c-7.2,0-13-5.8-13-13S21.8,7,29,7s13,5.8,13,13S36.2,33,29,33z M29,13c-3.9,0-7,3.1-7,7s3.1,7,7,7 s7-3.1,7-7S32.9,13,29,13z"/><path fill="#71c2ff" d="M111,126.7c-1.7,0-3-1.3-3-3V80c0-1.7,1.3-3,3-3c1.7,0,3-1.3,3-3V50c0-3.9-3.1-7-7-7H91c-1.7,0-3-1.3-3-3 s1.3-3,3-3h16c7.2,0,13,5.8,13,13v24c0,3.9-2.5,7.2-6,8.5v41.3C114,125.4,112.7,126.7,111,126.7z"/><path fill="#71c2ff" d="M99,33c-7.2,0-13-5.8-13-13S91.8,7,99,7s13,5.8,13,13S106.2,33,99,33z M99,13c-3.9,0-7,3.1-7,7s3.1,7,7,7 s7-3.1,7-7S102.9,13,99,13z"/><path fill="#444b54" d="M41,101c-1.7,0-3-1.3-3-3V84c0-1.7,1.3-3,3-3s3,1.3,3,3v14C44,99.7,42.7,101,41,101z"/><path fill="#444b54" d="M6,101c-1.7,0-3-1.3-3-3V84c0-1.7,1.3-3,3-3s3,1.3,3,3v14C9,99.7,7.7,101,6,101z"/><circle cx="64" cy="14" r="10" fill="#fff"/><path fill="#444b54" d="M64,27c-7.2,0-13-5.8-13-13S56.8,1,64,1c7.2,0,13,5.8,13,13S71.2,27,64,27z M64,7c-3.9,0-7,3.1-7,7s3.1,7,7,7 c3.9,0,7-3.1,7-7S67.9,7,64,7z"/><path fill="#444b54" d="M95,121l-16,0V80.8V80v-3.5c3.5-1.2,6-4.6,6-8.5V50c0-4.5-0.9-19-13-19H54.8c-6.5,0-12.1,4.9-12.9,11.4 L38,73.6c-0.2,1.6,1,3.1,2.6,3.3c1.6,0.2,3.1-1,3.3-2.6l3.9-31.2c0.4-3.5,3.4-6.1,6.9-6.1H72c6.1,0,7,8.1,7,13v18c0,1.7-1.3,3-3,3 c-1.7,0-3,1.3-3,3v6v0.8V121l-6,0V80c0-1.7-1.3-3-3-3c-1.7,0-3,1.3-3,3v41l-6,0V74c0-1.7-1.3-3-3-3s-3,1.3-3,3v47l-16,0 c-1.7,0-3,1.3-3,3s1.3,3,3,3l62,0c1.7,0,3-1.3,3-3S96.7,121,95,121z"/></svg>